#!OML:ASF X:\für Bonn\!DataBase\2005_08_12_Daniel\c3d\Daniel.ASF
:FULLY-SPECIFIED
:DEGREES
155
root 0.0695742 7.52126 -14.9448 331.077 19.8071 -3.16741
lowerback 82.3989 -4.80655 6.0034
upperback 12.0488 0.75481 -2.93104
thorax -6.14141 1.47929 -6.10613
lowerneck 5.72589 -1.38511 -2.10089
upperneck 20.4454 -1.743 1.09914
head 5.26285 -0.832559 0.660951
rclavicle -2.74323e-014 -9.14409e-015
rhumerus 20.3031 -15.8123 -106.035
rradius 16.9805
rwrist 42.6134
rhand -61.4973 54.055
rfingers 7.12502
rthumb -33.5761 27.1781
lclavicle -2.74323e-014 -9.14409e-015
lhumerus -19.74 0.644226 85.1502
lradius 50.6552
lwrist -6.2006
lhand -12.3648 -5.62748
lfingers 7.12502
lthumb 13.7054 23.9012
rfemur 44.2814 -46.9777 -136.867
rtibia 155.088
rfoot -35.3631 -298.488
rtoes 8.36143
lfemur -57.9853 71.7941 29.6723
ltibia 152.598
lfoot -51.0796 -62.4164
ltoes 8.01338
156
root 0.0608676 7.45358 -14.9303 330.658 19.8642 -3.21253
lowerback 82.4648 -4.83161 5.96961
upperback 12.0696 0.722125 -2.90197
thorax -6.1106 1.46562 -6.0441
lowerneck 6.01278 -1.3156 -2.09117
upperneck 20.3745 -1.66248 1.14515
head 5.19291 -0.791817 0.677785
rclavicle -2.54444e-014 -1.8487e-014
rhumerus 19.6799 -14.6642 -105.904
rradius 17.5848
rwrist 42.2849
rhand -61.6583 54.9633
rfingers 7.12502
rthumb -33.729 28.1198
lclavicle -2.54444e-014 -1.8487e-014
lhumerus -19.8287 0.614462 85.22
lradius 50.665
lwrist -6.08059
lhand -12.4143 -5.63957
lfingers 7.12502
lthumb 13.6577 23.8923
rfemur 43.3414 -45.9777 -137.263
rtibia 155.627
rfoot -35.6903 -297.742
rtoes 8.6001
lfemur -54.9981 72.7772 33.8359
ltibia 153.064
lfoot -52.6484 -63.3287
ltoes 8.27363
157
root 0.0523451 7.38836 -14.9166 330.249 19.9072 -3.28738
lowerback 82.5352 -4.85699 5.95475
upperback 12.0767 0.705142 -2.86253
thorax -6.09258 1.45628 -5.98324
lowerneck 6.19983 -1.24793 -2.10892
upperneck 20.3809 -1.58431 1.2018
head 5.16387 -0.753244 0.70172
rclavicle 7.95139e-016 -2.20651e-014
rhumerus 19.0888 -13.522 -105.769
rradius 18.1473
rwrist 42.1161
rhand -61.8288 55.895
rfingers 7.12502
rthumb -33.8911 29.0871
lclavicle 7.95139e-016 -2.20651e-014
lhumerus -19.9172 0.596351 85.2995
lradius 50.6926
lwrist -6.04591
lhand -12.4598 -5.66986
lfingers 7.12502
lthumb 13.6139 23.865
rfemur 42.4022 -45.0315 -137.563
rtibia 156.126
rfoot -35.9795 -296.996
rtoes 8.90224
lfemur -51.9269 73.6315 38.1364
ltibia 153.527
lfoot -54.2492 -64.165
ltoes 8.43147
158
root 0.0439552 7.3268 -14.9024 329.864 19.9624 -3.33851
lowerback 82.5864 -4.87714 5.93056
upperback 12.0865 0.683502 -2.82901
thorax -6.07538 1.44553 -5.92436
lowerneck 6.35256 -1.19075 -2.08304
upperneck 20.4042 -1.5146 1.22913
head 5.14522 -0.717126 0.708581
rclavicle 5.1684e-015 -1.23246e-014
rhumerus 18.586 -12.5015 -105.704
rradius 18.6423
rwrist 42.2582
rhand -62.0196 56.2668
rfingers 7.12502
rthumb -34.0723 29.4991
lclavicle 5.1684e-015 -1.23246e-014
lhumerus -19.96 0.602945 85.3777
lradius 50.6769
lwrist -5.96595
lhand -12.581 -5.77827
lfingers 7.12502
lthumb 13.497 23.7644
rfemur 41.4568 -44.1251 -137.877
rtibia 156.599
rfoot -36.3847 -296.231
rtoes 9.22587
lfemur -48.6387 74.3302 42.5731
ltibia 153.945
lfoot -55.883 -64.9724
ltoes 8.73249
159
root 0.0353468 7.26902 -14.8893 329.449 20.012 -3.39834
lowerback 82.6868 -4.91886 5.92628
upperback 12.0828 0.660573 -2.80071
thorax -6.06559 1.43586 -5.87854
lowerneck 6.41121 -1.13342 -2.11325
upperneck 20.4791 -1.45099 1.30295
head 5.15879 -0.685183 0.738796
rclavicle 7.55382e-015 -2.66371e-014
rhumerus 18.1466 -11.4343 -105.603
rradius 19.0534
rwrist 42.4758
rhand -62.1811 56.4921
rfingers 7.12502
rthumb -34.2257 29.7587
lclavicle 7.55382e-015 -2.66371e-014
lhumerus -19.9546 0.608747 85.4573
lradius 50.6211
lwrist -5.93643
lhand -12.6593 -5.92819
lfingers 7.12502
lthumb 13.4216 23.6194
rfemur 40.4666 -43.2965 -138.079
rtibia 157.031
rfoot -36.8605 -295.521
rtoes 9.2842
lfemur -45.5885 74.804 46.7158
ltibia 154.323
lfoot -57.3036 -65.7758
ltoes 8.97273
160
root 0.0259097 7.21444 -14.8759 329.07 20.0655 -3.4557
lowerback 82.7448 -4.94552 5.92856
upperback 12.086 0.656194 -2.76127
thorax -6.05189 1.43277 -5.82943
lowerneck 6.4158 -1.08643 -2.15367
upperneck 20.5832 -1.40308 1.3957
head 5.19064 -0.660214 0.776086
rclavicle 2.72335e-014 -4.85035e-014
rhumerus 17.7867 -10.425 -105.507
rradius 19.3626
rwrist 42.8367
rhand -62.2464 56.5823
rfingers 7.12502
rthumb -34.2877 29.8629
lclavicle 2.72335e-014 -4.85035e-014
lhumerus -19.9443 0.604557 85.569
lradius 50.5913
lwrist -5.8976
lhand -12.7508 -6.07927
lfingers 7.12502
lthumb 13.3334 23.4741
rfemur 39.5089 -42.513 -138.286
rtibia 157.438
rfoot -37.2246 -294.774
rtoes 9.53988
lfemur -42.4652 75.1964 50.9071
ltibia 154.663
lfoot -58.8273 -66.5388
ltoes 9.1973
